<svg width="712" height="161" viewBox="0 0 712 161" fill="none" xmlns="http://www.w3.org/2000/svg">
<path d="M52.9069 20.0797C67.6239 20.0797 80.4848 22.9804 91.4895 28.7818C102.494 34.5832 110.98 42.7579 116.946 53.3059C123.045 63.7221 126.094 75.7864 126.094 89.4988C126.094 103.079 123.045 115.144 116.946 125.692C110.98 136.24 102.428 144.414 91.2906 150.216C80.2859 156.017 67.4914 158.918 52.9069 158.918H0.601562V20.0797H52.9069ZM50.7192 129.647C63.5801 129.647 73.5903 126.153 80.75 119.165C87.9096 112.177 91.4895 102.288 91.4895 89.4988C91.4895 76.7093 87.9096 66.7546 80.75 59.6347C73.5903 52.5148 63.5801 48.9549 50.7192 48.9549H34.6099V129.647H50.7192Z" fill="black"/>
<path d="M154.248 37.0884C148.282 37.0884 143.376 35.3743 139.531 31.9462C135.819 28.3863 133.963 24.0352 133.963 18.8931C133.963 13.6191 135.819 9.26803 139.531 5.83993C143.376 2.27998 148.282 0.5 154.248 0.5C160.082 0.5 164.855 2.27998 168.568 5.83993C172.413 9.26803 174.335 13.6191 174.335 18.8931C174.335 24.0352 172.413 28.3863 168.568 31.9462C164.855 35.3743 160.082 37.0884 154.248 37.0884ZM171.153 48.5593V158.918H137.145V48.5593H171.153Z" fill="black"/>
<path d="M237.762 127.274L261.827 48.5593H298.023L258.645 158.918H216.681L177.303 48.5593H213.698L237.762 127.274Z" fill="black"/>
<path d="M405.015 101.959C405.015 105.123 404.816 108.419 404.419 111.847H327.452C327.983 118.704 330.17 123.978 334.015 127.669C337.993 131.229 342.832 133.009 348.533 133.009C357.019 133.009 362.919 129.449 366.234 122.329H402.43C400.574 129.581 397.193 136.108 392.287 141.909C387.514 147.711 381.481 152.259 374.189 155.556C366.897 158.852 358.743 160.5 349.727 160.5C338.855 160.5 329.176 158.193 320.69 153.578C312.205 148.963 305.575 142.371 300.802 133.8C296.029 125.23 293.643 115.21 293.643 103.739C293.643 92.2676 295.963 82.247 300.603 73.6768C305.377 65.1065 312.006 58.514 320.491 53.8993C328.977 49.2845 338.722 46.9771 349.727 46.9771C360.466 46.9771 370.012 49.2186 378.365 53.7015C386.718 58.1844 393.215 64.5791 397.856 72.8857C402.629 81.1922 405.015 90.8832 405.015 101.959ZM370.211 93.0587C370.211 87.2573 368.222 82.6426 364.245 79.2145C360.267 75.7864 355.295 74.0723 349.329 74.0723C343.628 74.0723 338.788 75.7204 334.811 79.0167C330.966 82.3129 328.579 86.9936 327.651 93.0587H370.211Z" fill="black"/>
<path d="M450.998 66.9524C454.976 60.8873 459.948 56.1407 465.914 52.7126C471.881 49.1527 478.51 47.3727 485.802 47.3727V83.17H476.455C467.969 83.17 461.605 85.0159 457.362 88.7077C453.12 92.2676 450.998 98.5964 450.998 107.694V158.918H416.99V48.5593H450.998V66.9524Z" fill="black"/>
<path d="M543.226 160.5C533.547 160.5 524.929 158.852 517.371 155.556C509.814 152.259 503.847 147.776 499.472 142.107C495.097 136.305 492.644 129.845 492.113 122.725H525.724C526.122 126.549 527.912 129.647 531.094 132.02C534.276 134.394 538.187 135.58 542.828 135.58C547.07 135.58 550.319 134.789 552.573 133.207C554.959 131.493 556.153 129.317 556.153 126.68C556.153 123.516 554.495 121.209 551.181 119.758C547.866 118.176 542.496 116.462 535.071 114.616C527.116 112.77 520.487 110.858 515.184 108.881C509.88 106.771 505.306 103.541 501.461 99.1897C497.616 94.7068 495.693 88.7077 495.693 81.1922C495.693 74.8634 497.417 69.1279 500.864 63.9858C504.444 58.7118 509.615 54.5585 516.377 51.5259C523.271 48.4934 531.425 46.9771 540.839 46.9771C554.761 46.9771 565.699 50.4052 573.654 57.2614C581.742 64.1176 586.382 73.2153 587.576 84.5544H556.153C555.622 80.7307 553.899 77.6982 550.982 75.4567C548.197 73.2153 544.485 72.0946 539.845 72.0946C535.867 72.0946 532.818 72.8857 530.696 74.4679C528.575 75.9182 527.514 77.9619 527.514 80.5989C527.514 83.7633 529.171 86.1366 532.486 87.7188C535.933 89.301 541.237 90.8832 548.396 92.4654C556.617 94.575 563.312 96.6846 568.483 98.7942C573.654 100.772 578.162 104.068 582.007 108.683C585.985 113.166 588.04 119.231 588.172 126.878C588.172 133.339 586.316 139.14 582.604 144.282C579.024 149.293 573.787 153.248 566.892 156.149C560.13 159.05 552.241 160.5 543.226 160.5Z" fill="black"/>
<path d="M594.261 103.541C594.261 92.2017 596.383 82.247 600.625 73.6768C605.001 65.1065 610.901 58.514 618.326 53.8993C625.751 49.2845 634.037 46.9771 643.186 46.9771C651.008 46.9771 657.837 48.5593 663.67 51.7237C669.637 54.8881 674.211 59.0414 677.393 64.1836V48.5593H711.401V158.918H677.393V143.294C674.078 148.436 669.438 152.589 663.471 155.753C657.638 158.918 650.809 160.5 642.987 160.5C633.971 160.5 625.751 158.193 618.326 153.578C610.901 148.831 605.001 142.173 600.625 133.603C596.383 124.9 594.261 114.88 594.261 103.541ZM677.393 103.739C677.393 95.3002 675.006 88.6417 670.233 83.7633C665.593 78.8848 659.892 76.4456 653.13 76.4456C646.368 76.4456 640.6 78.8848 635.827 83.7633C631.187 88.5099 628.866 95.1024 628.866 103.541C628.866 111.979 631.187 118.704 635.827 123.714C640.6 128.592 646.368 131.032 653.13 131.032C659.892 131.032 665.593 128.592 670.233 123.714C675.006 118.835 677.393 112.177 677.393 103.739Z" fill="black"/>
</svg>
