<svg width="160" height="160" viewBox="0 0 160 160" fill="none" xmlns="http://www.w3.org/2000/svg">
<path fill-rule="evenodd" clip-rule="evenodd" d="M80.001 160C124.184 160 160.001 124.183 160.001 80C160.001 35.8172 124.184 0 80.001 0C35.8182 0 0.000976562 35.8172 0.000976562 80C0.000976562 124.183 35.8182 160 80.001 160ZM30.9738 120.795C29.6695 120.32 28.9971 118.878 29.4718 117.574L60.382 32.6482C60.8046 31.4871 61.9939 30.8267 63.1701 31.0307C64.3463 30.8267 65.5356 31.4871 65.9582 32.6482L74.3486 55.7009H84.3294L92.6194 32.9243C93.0421 31.7628 94.2321 31.1024 95.4087 31.307C96.5845 31.1037 97.7731 31.764 98.1956 32.9247L129.106 117.85C129.581 119.154 128.908 120.597 127.604 121.071C126.3 121.546 124.857 120.873 124.383 119.569L118.06 102.199H91.2724L96.8684 117.574C97.3431 118.878 96.6706 120.32 95.3664 120.795C94.0622 121.269 92.62 120.597 92.1453 119.293L79.339 84.1076L66.4322 119.569C65.9575 120.873 64.5154 121.546 63.2112 121.071C61.9069 120.596 61.2345 119.154 61.7092 117.85L67.4056 102.199H40.4165L34.1948 119.293C33.7201 120.597 32.278 121.269 30.9738 120.795ZM110.74 82.0871L116.231 97.1726H89.6348C89.5712 97.1726 89.5081 97.175 89.4456 97.1796L83.9524 82.0871H110.74ZM42.2459 97.1726H69.235L74.7257 82.0871H47.7365L42.2459 97.1726ZM102.966 60.7271L108.911 77.061H82.123L82.0134 76.7598L87.8488 60.7271H102.966ZM76.6647 76.7598L76.555 77.061H49.5659L55.511 60.7269L55.5421 60.7271H70.8293L76.6647 76.7598ZM68.9999 55.7009L63.1701 39.6836L57.3403 55.7009H68.9999ZM76.178 60.7271L79.339 69.412L82.5 60.7271H76.178ZM101.137 55.7009L95.4074 39.9599L89.6782 55.7009H101.137Z" fill="#121212"/>
</svg>
