<svg xmlns="http://www.w3.org/2000/svg" fill="none" viewBox="0 0 61 60">
    <style>
        path {
            fill: #F7F6E8;
        }
        @media (prefers-color-scheme: light) {
            path { fill: #000000; }
        }
    </style>
    <path fill="#F7F6E8" fill-rule="evenodd" d="M30.71 60a30 30 0 1 0 0-60 30 30 0 0 0 0 60ZM12.28 44.19a1.1 1.1 0 0 1-.66-1.41l11.6-31.85c.17-.5.68-.78 1.18-.7a1.1 1.1 0 0 1 1.2.7l3 8.23h3.74l2.96-8.12c.18-.5.69-.8 1.2-.72a1.1 1.1 0 0 1 1.19.72l11.59 31.84a1.1 1.1 0 1 1-2.07.76L45 37.54h-9.7l1.9 5.24a1.1 1.1 0 1 1-2.07.75l-4.65-12.79-4.7 12.9a1.1 1.1 0 1 1-2.06-.76l1.94-5.34h-9.78l-2.18 6a1.1 1.1 0 0 1-1.41.65Zm29.85-14.5 2.06 5.65h-9.71l-2.06-5.66h9.71Zm-25.46 5.65h9.78l2.06-5.66h-9.78l-2.06 5.66ZM39.1 21.36l2.23 6.12h-9.68l2.23-6.12h5.22Zm-12.05 0 2.23 6.12h-9.75l2.23-6.12h5.3Zm-.8-2.2-1.85-5.08-1.84 5.08h3.7Zm3.14 2.2 1.08 2.95 1.07-2.95H29.4Zm8.91-2.2-1.8-4.97-1.82 4.97h3.62Z" clip-rule="evenodd"/>
</svg>